<?xml version="1.0" standalone="no"?>
<!DOCTYPE svg PUBLIC "-//W3C//DTD SVG 20010904//EN"
 "http://www.w3.org/TR/2001/REC-SVG-20010904/DTD/svg10.dtd">
<svg version="1.0" xmlns="http://www.w3.org/2000/svg"
 width="956.000000pt" height="956.000000pt" viewBox="0 0 956.000000 956.000000"
 preserveAspectRatio="xMidYMid meet">
<metadata>
Created by potrace 1.11, written by Peter Selinger 2001-2013
</metadata>
<g transform="translate(0.000000,956.000000) scale(0.100000,-0.100000)"
fill="#000000" stroke="none">
<path d="M1763 7760 c-31 -12 -62 -67 -58 -99 1 -15 60 -125 131 -246 70 -121
138 -240 152 -265 14 -25 29 -46 34 -48 4 -2 8 -9 8 -16 0 -8 9 -25 21 -40 11
-14 17 -26 14 -26 -4 0 -2 -7 5 -15 10 -13 197 -330 267 -455 14 -25 29 -49
33 -55 4 -5 19 -30 32 -55 14 -25 49 -85 78 -135 29 -49 61 -105 71 -122 37
-64 57 -100 129 -223 40 -69 81 -141 92 -160 11 -19 29 -47 39 -62 11 -14 19
-29 19 -33 0 -4 23 -44 50 -90 28 -46 50 -88 50 -94 0 -6 5 -11 10 -11 6 0 10
-4 10 -9 0 -6 156 -281 200 -351 15 -24 84 -142 100 -172 8 -15 42 -73 75
-130 33 -57 63 -110 68 -118 4 -8 16 -28 27 -45 10 -16 25 -41 33 -55 7 -14
23 -42 35 -62 12 -21 30 -53 41 -70 10 -18 60 -104 110 -192 51 -87 97 -168
104 -180 7 -11 14 -23 17 -26 3 -3 12 -19 21 -35 25 -47 324 -562 377 -650 13
-22 60 -103 104 -180 44 -77 87 -151 96 -165 9 -14 15 -28 14 -32 -1 -5 3 -8
8 -8 6 0 10 -5 10 -10 0 -6 16 -36 35 -66 19 -30 35 -57 35 -59 0 -19 80 -127
100 -135 54 -22 112 6 160 79 8 13 25 35 38 50 12 14 103 128 201 253 98 124
184 232 190 240 6 7 59 74 117 148 58 74 110 137 115 138 5 2 9 9 9 15 0 7 16
29 35 50 19 21 35 41 35 44 0 3 8 13 18 22 9 9 22 24 27 33 10 15 294 376 340
431 6 7 71 89 145 182 73 94 137 172 142 173 4 2 8 8 8 14 0 5 6 15 13 22 6 7
23 28 37 46 14 18 30 38 35 44 6 6 44 53 84 105 41 52 80 102 87 110 7 9 36
45 64 81 28 36 56 72 63 80 7 8 46 58 87 110 41 52 78 97 82 98 5 2 8 8 8 13
0 6 10 21 23 34 24 26 27 30 72 90 16 21 36 47 45 56 8 9 24 29 35 44 11 16
25 33 30 39 6 6 29 36 52 66 24 30 49 62 56 70 7 8 37 47 67 85 30 39 57 72
60 75 3 3 27 34 54 70 28 36 56 72 63 80 8 8 42 51 76 95 35 44 110 139 168
212 57 73 115 146 129 164 14 18 30 37 35 43 9 10 26 32 118 150 12 15 37 47
55 70 18 22 39 48 45 56 119 151 203 256 207 260 3 3 17 21 30 40 13 19 32 42
42 51 10 9 18 21 18 27 0 6 3 12 8 14 4 2 28 30 54 63 27 33 52 65 56 70 4 6
41 53 82 105 41 52 84 106 97 119 25 26 38 78 28 110 -4 12 -19 33 -33 46
l-27 25 -3330 -1 c-1954 0 -3339 -4 -3352 -9z"/>
<path d="M602 7220 c-16 -10 -32 -22 -35 -28 -7 -10 -17 -63 -22 -112 -5 -49
-15 -146 -20 -200 -7 -62 -16 -149 -20 -185 -1 -16 -4 -30 -4 -30 -1 0 -4 -22
-6 -50 -1 -27 -6 -79 -10 -115 -4 -36 -8 -83 -10 -105 -2 -22 -6 -53 -9 -70
-2 -16 -8 -64 -12 -105 -10 -105 -12 -125 -13 -125 -1 0 -4 -29 -6 -64 -2 -34
-6 -75 -9 -90 -3 -14 -8 -60 -11 -101 -4 -41 -8 -86 -10 -100 -2 -14 -7 -52
-10 -85 -3 -33 -8 -76 -10 -95 -6 -52 -16 -158 -20 -199 -2 -20 -7 -63 -10
-96 -4 -33 -9 -80 -10 -105 -2 -25 -5 -45 -6 -45 0 0 -2 -13 -4 -30 -10 -107
-16 -164 -20 -195 -3 -19 -7 -64 -10 -99 -3 -35 -7 -76 -9 -90 -3 -14 -8 -59
-11 -99 -4 -41 -8 -81 -10 -90 -1 -9 -6 -52 -9 -94 -4 -42 -9 -87 -11 -98 -2
-12 -5 -43 -6 -68 -1 -26 -4 -51 -7 -55 -2 -5 -6 -32 -8 -60 -4 -61 -10 -122
-18 -197 -8 -63 -14 -122 -21 -200 -3 -30 -7 -71 -10 -90 -6 -52 -14 -128 -21
-195 -3 -33 -7 -73 -9 -90 -2 -16 -6 -59 -10 -95 -3 -36 -8 -76 -10 -90 -2
-14 -7 -59 -10 -99 -3 -41 -7 -86 -9 -100 -3 -15 -7 -57 -11 -96 -3 -38 -8
-82 -11 -97 -2 -14 -6 -57 -9 -95 -2 -37 -5 -68 -5 -68 -4 0 -10 -57 -25 -210
-2 -22 -6 -62 -10 -90 -3 -27 -7 -68 -9 -90 -3 -22 -7 -71 -11 -110 -4 -38 -9
-83 -11 -100 -11 -78 -12 -171 -2 -189 29 -55 -113 -51 1885 -54 l1843 -2 30
27 c51 47 45 92 -25 208 -14 22 -44 74 -67 115 -23 41 -66 115 -95 163 -29 48
-53 90 -53 93 0 3 -13 25 -30 48 -16 24 -26 46 -23 50 4 3 1 6 -5 6 -7 0 -12
4 -12 10 0 8 -61 114 -109 190 -8 14 -16 27 -16 30 0 3 -8 16 -16 30 -34 52
-168 286 -180 313 -7 15 -16 27 -21 27 -4 0 -8 4 -8 9 0 5 -43 82 -95 171 -52
89 -95 164 -95 166 0 2 -25 44 -55 94 -30 50 -55 95 -55 100 0 6 -4 10 -8 10
-4 0 -13 12 -19 28 -12 28 -54 103 -63 112 -7 7 -29 42 -37 60 -4 8 -26 48
-50 88 -24 40 -43 77 -43 82 0 6 -3 10 -8 10 -4 0 -13 15 -21 33 -8 17 -17 34
-21 37 -4 3 -20 30 -37 60 -30 54 -224 391 -243 420 -13 21 -129 223 -163 284
-16 28 -36 62 -45 76 -9 14 -22 34 -28 45 -6 11 -21 37 -32 58 -12 20 -30 52
-41 70 -10 17 -41 71 -70 119 -28 48 -51 91 -51 97 0 6 -4 11 -10 11 -5 0 -10
4 -10 9 0 5 -36 70 -80 144 -44 75 -80 140 -80 146 0 6 -4 11 -10 11 -5 0 -10
7 -10 15 0 8 -5 15 -10 15 -6 0 -9 3 -8 8 1 4 -5 18 -14 32 -13 21 -48 82
-139 240 -8 14 -17 27 -20 30 -3 3 -9 14 -13 24 -4 11 -18 38 -32 60 -40 65
-154 258 -154 262 0 3 -89 157 -116 201 -8 13 -15 26 -15 30 0 5 -7 15 -14 23
-8 9 -25 36 -38 61 -31 57 -50 90 -60 103 -5 6 -63 106 -130 223 -67 116 -131
223 -142 237 -28 33 -82 41 -123 16z"/>
<path d="M9410 7206 c-14 -8 -36 -29 -50 -48 -31 -43 -41 -55 -62 -79 -10 -10
-18 -21 -18 -24 0 -3 -8 -13 -17 -23 -10 -10 -29 -33 -43 -52 -26 -35 -117
-149 -150 -188 -11 -13 -29 -37 -42 -55 -12 -18 -25 -34 -28 -37 -3 -3 -30
-36 -60 -75 -31 -38 -99 -124 -151 -190 -52 -66 -110 -140 -129 -165 -19 -25
-38 -49 -43 -55 -4 -5 -18 -22 -32 -37 -13 -15 -36 -45 -52 -65 -15 -21 -39
-52 -53 -69 -36 -44 -51 -63 -90 -114 -19 -24 -57 -72 -83 -105 -62 -77 -86
-107 -138 -175 -23 -30 -47 -59 -53 -65 -7 -5 -23 -26 -36 -45 -13 -19 -29
-40 -35 -46 -5 -6 -37 -46 -70 -89 -33 -43 -75 -94 -92 -114 -18 -20 -33 -39
-33 -42 0 -3 -10 -17 -22 -31 -13 -14 -50 -61 -83 -103 -33 -43 -65 -83 -70
-89 -6 -6 -26 -31 -45 -56 -19 -25 -40 -52 -47 -60 -7 -8 -83 -105 -170 -215
-221 -280 -249 -316 -277 -350 -14 -16 -63 -79 -111 -140 -47 -60 -92 -118
-101 -128 -8 -10 -63 -80 -121 -155 -59 -75 -112 -142 -118 -148 -5 -6 -23
-28 -40 -49 -16 -21 -50 -64 -75 -95 -25 -31 -56 -72 -70 -90 -14 -19 -33 -41
-42 -49 -10 -9 -18 -21 -18 -27 0 -7 -3 -14 -7 -16 -5 -1 -59 -68 -122 -148
-63 -80 -121 -150 -128 -156 -7 -6 -13 -14 -13 -18 0 -3 -9 -16 -19 -28 -11
-13 -67 -84 -125 -158 -118 -150 -139 -176 -208 -259 -10 -12 -18 -23 -18 -25
0 -2 -11 -17 -24 -32 -14 -16 -69 -86 -123 -155 -54 -69 -104 -132 -110 -140
-52 -63 -71 -87 -84 -105 -8 -11 -29 -38 -46 -60 -110 -132 -177 -221 -189
-251 -13 -31 -13 -38 3 -71 10 -20 29 -42 43 -49 20 -10 414 -13 1843 -13
1987 0 1861 -4 1885 57 11 27 17 63 27 180 3 32 8 74 10 93 3 19 7 62 10 95 3
33 8 76 10 95 2 19 7 62 10 95 4 33 8 71 10 85 2 14 6 59 10 100 4 41 8 86 10
100 2 14 6 54 10 90 10 113 15 154 19 175 2 11 7 60 11 108 3 48 8 96 10 105
3 17 15 129 20 192 2 19 6 58 9 85 4 28 8 73 11 100 2 28 6 64 9 80 2 17 7 65
11 108 3 43 8 86 10 96 2 9 6 51 10 92 3 41 8 90 10 109 3 19 7 58 9 85 3 28
8 70 10 95 14 126 19 168 22 205 4 52 13 132 18 170 3 17 8 66 12 110 3 44 8
91 9 105 2 14 6 52 9 85 4 33 8 76 11 95 7 57 16 138 30 295 3 39 8 81 10 95
4 27 14 112 30 275 7 67 13 119 20 186 4 35 9 87 10 114 2 28 6 64 8 80 3 17
9 64 12 105 4 41 9 82 10 91 2 8 6 49 10 90 3 41 8 88 10 104 2 17 6 57 9 90
3 33 8 71 11 83 2 13 7 62 10 109 4 47 8 95 11 107 2 11 6 50 9 86 3 36 7 75
9 87 16 80 17 164 1 196 -25 53 -82 71 -135 43z"/>
</g>
</svg>
